<svg width="94" height="94" viewBox="0 0 94 94" fill="none" xmlns="http://www.w3.org/2000/svg">
<path d="M28.2995 37.3363V28.2995H72.1429V47C72.1429 47.3463 72.4236 47.627 72.7699 47.627H79.2124C79.5586 47.627 79.8393 47.3463 79.8393 47V24.4513C79.8393 22.3261 78.1165 20.6032 75.9911 20.6032H28.2995V11.5664C28.2995 11.3254 28.1614 11.1057 27.9442 11.0013C27.727 10.8969 27.4691 10.9263 27.2809 11.0768L11.1748 23.9618C11.026 24.0808 10.9395 24.2609 10.9395 24.4513C10.9395 24.6418 11.026 24.8219 11.1748 24.9409L27.2809 37.8259C27.4691 37.9764 27.727 38.0058 27.9442 37.9014C28.1614 37.797 28.2995 37.5773 28.2995 37.3363ZM65.7005 56.6637V65.7005H21.8571V47C21.8571 46.6537 21.5764 46.373 21.2301 46.373H14.7876C14.4414 46.373 14.1607 46.6537 14.1607 47V69.5486C14.1607 71.674 15.8836 73.3968 18.0089 73.3968H65.7005V82.4336C65.7005 82.6746 65.8386 82.8943 66.0558 82.9987C66.273 83.1031 66.5309 83.0737 66.7191 82.9232L82.8252 70.0382C82.974 69.9192 83.0605 69.7391 83.0605 69.5486C83.0605 69.3582 82.974 69.1781 82.8252 69.0591L66.7191 56.1741C66.5309 56.0236 66.273 55.9942 66.0558 56.0986C65.8386 56.203 65.7005 56.4227 65.7005 56.6637Z" fill="#FFE460" stroke="#FFE460" stroke-width="1.25391" stroke-linejoin="round"/>
</svg>
