<svg width="94" height="94" viewBox="0 0 94 94" fill="none" xmlns="http://www.w3.org/2000/svg">
<path d="M82.25 21.8477C82.25 19.4059 80.5242 17.625 78.064 17.625H42.3918C41.8777 17.625 41.6023 17.5148 41.2718 17.1844L37.141 13.0535L37.1043 13.0168C36.2047 12.1723 35.4703 11.75 33.9281 11.75H16.2847C13.7511 11.75 11.75 13.641 11.75 15.9727V29.375H82.25V21.8477ZM11.75 34.5156H10.2261C7.87615 34.5156 5.58122 35.452 5.91169 38.977C6.24216 42.502 10.2261 77.6602 10.2261 77.6602C10.7218 80.9281 12.3742 82.25 14.816 82.25H79.5328C81.8644 82.25 83.3883 80.818 83.7554 77.6602C83.7554 77.6602 87.8312 43.7137 88.0883 39.9316C88.3453 36.168 86.4543 34.5156 83.7554 34.5156H11.75Z" fill="#00BFFA"/>
</svg>
