<svg width="94" height="94" viewBox="0 0 94 94" fill="none" xmlns="http://www.w3.org/2000/svg">
<path d="M49.9375 11.75H47C46.1922 11.75 45.5312 12.4109 45.5312 13.2188V26.4375C45.5312 27.2453 46.9266 27.9062 47.7344 27.9062H49.9375C50.7453 27.9062 51.4062 27.2453 51.4062 26.4375V13.2188C51.4062 12.4109 50.7453 11.75 49.9375 11.75Z" fill="#A9BE00"/>
<path d="M79.6613 23.8855L70.1328 14.357C68.4805 12.7047 66.2223 11.75 63.8723 11.75H58.7316C57.116 11.75 55.7941 13.0902 55.7941 14.7242V29.4117C55.7941 31.0273 54.4723 32.3492 52.8566 32.3492H29.375C27.7594 32.3492 26.4375 31.0273 26.4375 29.4117V14.7242C26.4375 13.1086 25.1156 11.75 23.5 11.75H17.625C14.3937 11.75 11.75 14.3937 11.75 17.625V76.375C11.75 79.6063 14.3937 82.25 17.625 82.25H76.375C79.6063 82.25 82.25 79.6063 82.25 76.375V30.1094C82.25 27.7777 81.3137 25.5379 79.6613 23.8855ZM59.1172 73.4559C59.1172 75.0715 57.6484 76.3934 55.8492 76.3934H26.4008C24.6016 76.3934 23.1328 75.0715 23.1328 73.4559V55.8309C23.1328 54.2152 24.6016 52.8934 26.4008 52.8934H55.8492C57.6484 52.8934 59.1172 54.2152 59.1172 55.8309V73.4559Z" fill="#A9BE00"/>
</svg>
