<svg width="130" height="130" viewBox="0 0 130 130" fill="none" xmlns="http://www.w3.org/2000/svg">
<rect x="1" y="1" width="128" height="128" fill="#145E94" fill-opacity="0.8" stroke="#BAEFFB" stroke-width="2"/>
<path fill-rule="evenodd" clip-rule="evenodd" d="M11.1719 0L0 11.1719V0H11.1719ZM4.57031 4.57031V1.01562L1.01562 4.57031H4.57031Z" fill="#BAEFFB"/>
<path fill-rule="evenodd" clip-rule="evenodd" d="M11.1719 130L0 118.828V130H11.1719ZM4.57031 125.43V128.984L1.01562 125.43H4.57031Z" fill="#BAEFFB"/>
<path fill-rule="evenodd" clip-rule="evenodd" d="M130 11.1719L118.828 -4.84553e-07L130 0L130 11.1719ZM125.43 4.57031L128.984 4.57031L125.43 1.01562L125.43 4.57031Z" fill="#BAEFFB"/>
<path fill-rule="evenodd" clip-rule="evenodd" d="M130 118.828L118.828 130L130 130L130 118.828ZM125.43 125.43L128.984 125.43L125.43 128.984L125.43 125.43Z" fill="#BAEFFB"/>
<path d="M0.5 115.574V14.4259L14.4259 0.5H115.574L129.5 14.4258V115.574L115.574 129.5H14.4258L0.5 115.574Z" stroke="#BAEFFB"/>
<path d="M4.5625 119.637V10.3634L10.3634 4.5625H119.637L125.438 10.3634V119.637L119.637 125.438H10.3634L4.5625 119.637Z" stroke="#BAEFFB"/>
</svg>
