<svg width="146" height="146" viewBox="0 0 146 146" fill="none" xmlns="http://www.w3.org/2000/svg">
<g filter="url(#filter0_d_603_33857)">
<rect width="130" height="130" transform="translate(8 8)" fill="url(#paint0_radial_603_33857)" fill-opacity="0.9"/>
<g opacity="0.7">
<path fill-rule="evenodd" clip-rule="evenodd" d="M19.1719 8L8 19.1719V8H19.1719ZM12.5703 12.5703V9.01562L9.01562 12.5703H12.5703Z" fill="#BAEFFB"/>
<path fill-rule="evenodd" clip-rule="evenodd" d="M19.1719 138L8 126.828V138H19.1719ZM12.5703 133.43V136.984L9.01562 133.43H12.5703Z" fill="#BAEFFB"/>
<path fill-rule="evenodd" clip-rule="evenodd" d="M138 19.1719L126.828 8L138 8L138 19.1719ZM133.43 12.5703L136.984 12.5703L133.43 9.01562L133.43 12.5703Z" fill="#BAEFFB"/>
<path fill-rule="evenodd" clip-rule="evenodd" d="M138 126.828L126.828 138L138 138L138 126.828ZM133.43 133.43L136.984 133.43L133.43 136.984L133.43 133.43Z" fill="#BAEFFB"/>
<path d="M123.574 8.5L137.5 22.4258V123.574L123.574 137.5H22.4258L8.5 123.574V22.4259L22.4259 8.5H123.574Z" stroke="#BAEFFB"/>
<path opacity="0.4" d="M127.637 12.5625L133.438 18.3634V127.637L127.637 133.438H18.3634L12.5625 127.637V18.3634L18.3634 12.5625H127.637Z" stroke="#BAEFFB"/>
</g>
</g>
<defs>
<filter id="filter0_d_603_33857" x="0" y="0" width="146" height="146" filterUnits="userSpaceOnUse" color-interpolation-filters="sRGB">
<feFlood flood-opacity="0" result="BackgroundImageFix"/>
<feColorMatrix in="SourceAlpha" type="matrix" values="0 0 0 0 0 0 0 0 0 0 0 0 0 0 0 0 0 0 127 0" result="hardAlpha"/>
<feOffset/>
<feGaussianBlur stdDeviation="4"/>
<feColorMatrix type="matrix" values="0 0 0 0 0.308377 0 0 0 0 0.751016 0 0 0 0 1 0 0 0 0.5 0"/>
<feBlend mode="hard-light" in2="BackgroundImageFix" result="effect1_dropShadow_603_33857"/>
<feBlend mode="normal" in="SourceGraphic" in2="effect1_dropShadow_603_33857" result="shape"/>
</filter>
<radialGradient id="paint0_radial_603_33857" cx="0" cy="0" r="1" gradientUnits="userSpaceOnUse" gradientTransform="translate(65 65) rotate(90) scale(65)">
<stop offset="0.734325" stop-color="#0B0A0A"/>
<stop offset="1" stop-opacity="0.95"/>
</radialGradient>
</defs>
</svg>
