<svg width="37" height="28" viewBox="0 0 37 28" fill="none" xmlns="http://www.w3.org/2000/svg">
<path fill-rule="evenodd" clip-rule="evenodd" d="M26.6588 0C29.0091 0 31.0421 1.63688 31.5436 3.93301L36.2705 25.5732C36.5429 26.8203 35.5931 28 34.3165 28H2.50049C1.39592 28 0.500488 27.1046 0.500488 26V2C0.500488 0.895431 1.39592 0 2.50049 0H26.6588ZM17.0879 21.5454V10.979H14.2656V21.5454H17.0879ZM14.5195 7.20948C14.2331 7.47641 14.0898 7.81495 14.0898 8.2251C14.0898 8.63526 14.2331 8.9738 14.5195 9.24073C14.806 9.50766 15.1901 9.64112 15.6719 9.64112C16.1471 9.64112 16.528 9.50766 16.8145 9.24073C17.1074 8.9738 17.2539 8.63526 17.2539 8.2251C17.2539 7.81495 17.1074 7.47641 16.8145 7.20948C16.528 6.94255 16.1471 6.80909 15.6719 6.80909C15.1901 6.80909 14.806 6.94255 14.5195 7.20948Z" fill="#3CD3FC"/>
</svg>
