<svg width="816" height="50" viewBox="0 0 816 50" fill="none" xmlns="http://www.w3.org/2000/svg">
<g filter="url(#filter0_d_603_36)">
<g clip-path="url(#clip0_603_36)">
<path d="M39.4168 26.1143C38.8621 24.2297 37.1981 22.8451 35.1775 22.6143C35.0586 22.6143 34.9398 22.4989 34.9002 22.3835C34.4247 19.1912 31.4533 16.7681 27.9667 16.9989C24.7179 17.2297 22.103 19.8835 21.9842 23.0758C21.9049 25.0758 22.8558 26.922 24.3217 28.1143C24.5198 28.2681 24.5198 28.5758 24.2821 28.7297L23.9651 28.9605C23.8067 29.0758 23.6482 29.0374 23.5293 28.8835C21.8257 26.5374 18.8938 25.1143 15.6846 25.422C11.8811 25.7681 8.35499 29.2681 7.99842 32.9605C7.52298 38.3451 12.317 42.7681 17.9033 41.8835C21.8257 41.2681 25.1141 37.422 25.0745 33.5758C25.0745 33.1912 25.0349 32.7681 24.9556 32.3835C24.916 32.2297 24.9952 32.0374 25.1537 31.9605L28.2837 29.7681C28.4818 29.6528 28.6799 29.5758 28.878 29.5758C29.1157 29.5758 29.3138 29.5374 29.5515 29.4989C29.7496 29.4605 29.9477 29.5758 30.0269 29.7681C30.859 31.3451 32.5626 32.422 34.504 32.422C36.4453 32.422 38.1094 31.3835 38.9414 29.8451C38.981 29.7681 39.0998 29.6912 39.1791 29.6912L57.2853 29.1143C57.6418 29.1143 57.9192 28.8451 57.9192 28.4989V27.4605C57.9192 27.1143 57.6418 26.8451 57.2853 26.8451L39.6941 26.3451C39.5753 26.3451 39.4564 26.2297 39.4168 26.1143ZM16.5563 37.8451C14.1791 37.8451 12.2773 35.9989 12.2773 33.6912C12.2773 31.3835 14.2187 29.5374 16.5563 29.5374C18.9334 29.5374 20.8352 31.422 20.8352 33.6912C20.8352 35.9605 18.9334 37.8451 16.5563 37.8451ZM31.1363 23.8835C30.9778 24.5758 30.542 25.1528 29.9477 25.4989C29.5119 25.7681 29.0365 25.922 28.4818 25.922C28.4422 25.922 28.3629 25.922 28.3233 25.922C26.897 25.8451 25.7876 24.6912 25.7876 23.3066C25.7876 21.8451 27.0159 20.6528 28.5214 20.6528C30.0269 20.6528 31.2552 21.8451 31.2552 23.3066C31.2155 23.4989 31.1759 23.6912 31.1363 23.8835ZM34.5832 29.6143C33.6323 29.6143 32.8399 29.0374 32.523 28.2297C32.4437 27.9989 32.4041 27.7681 32.4041 27.4989C32.4041 26.3451 33.3946 25.3835 34.5832 25.3835H34.6228C35.8114 25.3835 36.7623 26.3451 36.7623 27.4989C36.7623 28.6528 35.7718 29.6143 34.5832 29.6143Z" fill="#3CD3FC"/>
</g>
<g clip-path="url(#clip1_603_36)">
<path d="M776.47 23.885C777.025 25.7696 778.689 27.1543 780.709 27.385C780.828 27.385 780.947 27.5004 780.987 27.6158C781.462 30.8081 784.433 33.2312 787.92 33.0004C791.169 32.7696 793.784 30.1158 793.903 26.9235C793.982 24.9235 793.031 23.0773 791.565 21.885C791.367 21.7312 791.367 21.4235 791.605 21.2696L791.922 21.0389C792.08 20.9235 792.239 20.962 792.357 21.1158C794.061 23.462 796.993 24.885 800.202 24.5773C804.006 24.2312 807.532 20.7312 807.888 17.0389C808.364 11.6543 803.57 7.23119 797.983 8.1158C794.061 8.73119 790.773 12.5773 790.812 16.4235C790.812 16.8081 790.852 17.2312 790.931 17.6158C790.971 17.7696 790.891 17.962 790.733 18.0389L787.603 20.2312C787.405 20.3466 787.207 20.4235 787.009 20.4235C786.771 20.4235 786.573 20.462 786.335 20.5004C786.137 20.5389 785.939 20.4235 785.86 20.2312C785.028 18.6543 783.324 17.5773 781.383 17.5773C779.441 17.5773 777.777 18.6158 776.945 20.1543C776.906 20.2312 776.787 20.3081 776.708 20.3081L758.601 20.885C758.245 20.885 757.968 21.1543 757.968 21.5004V22.5389C757.968 22.885 758.245 23.1543 758.601 23.1543L776.193 23.6543C776.311 23.6543 776.43 23.7696 776.47 23.885ZM799.33 12.1543C801.708 12.1543 803.609 14.0004 803.609 16.3081C803.609 18.6158 801.668 20.462 799.33 20.462C796.953 20.462 795.052 18.5773 795.052 16.3081C795.052 14.0389 796.953 12.1543 799.33 12.1543ZM784.75 26.1158C784.909 25.4235 785.345 24.8466 785.939 24.5004C786.375 24.2312 786.85 24.0773 787.405 24.0773C787.445 24.0773 787.524 24.0773 787.563 24.0773C788.99 24.1543 790.099 25.3081 790.099 26.6927C790.099 28.1543 788.871 29.3466 787.365 29.3466C785.86 29.3466 784.632 28.1543 784.632 26.6927C784.671 26.5004 784.711 26.3081 784.75 26.1158ZM781.304 20.385C782.254 20.385 783.047 20.962 783.364 21.7696C783.443 22.0004 783.483 22.2312 783.483 22.5004C783.483 23.6543 782.492 24.6158 781.304 24.6158H781.264C780.075 24.6158 779.124 23.6543 779.124 22.5004C779.124 21.3466 780.115 20.385 781.304 20.385Z" fill="#3CD3FC"/>
</g>
<line x1="41" y1="25" x2="763" y2="24.9999" stroke="#3CD3FC" stroke-width="2"/>
</g>
<defs>
<filter id="filter0_d_603_36" x="0" y="0" width="816" height="50" filterUnits="userSpaceOnUse" color-interpolation-filters="sRGB">
<feFlood flood-opacity="0" result="BackgroundImageFix"/>
<feColorMatrix in="SourceAlpha" type="matrix" values="0 0 0 0 0 0 0 0 0 0 0 0 0 0 0 0 0 0 127 0" result="hardAlpha"/>
<feOffset/>
<feGaussianBlur stdDeviation="4"/>
<feColorMatrix type="matrix" values="0 0 0 0 0.308377 0 0 0 0 0.751016 0 0 0 0 1 0 0 0 1 0"/>
<feBlend mode="hard-light" in2="BackgroundImageFix" result="effect1_dropShadow_603_36"/>
<feBlend mode="normal" in="SourceGraphic" in2="effect1_dropShadow_603_36" result="shape"/>
</filter>
<clipPath id="clip0_603_36">
<rect width="50" height="28" fill="white" transform="translate(8 14)"/>
</clipPath>
<clipPath id="clip1_603_36">
<rect width="50" height="28" fill="white" transform="matrix(1 0 0 -1 758 36)"/>
</clipPath>
</defs>
</svg>
